<svg width="57" height="56" viewBox="0 0 57 56" fill="none" xmlns="http://www.w3.org/2000/svg">
<rect x="4.5" y="4" width="48" height="48" rx="24" fill="#4916AF" fill-opacity="0.3"/>
<rect x="4.5" y="4" width="48" height="48" rx="24" stroke="#4916AF" stroke-opacity="0.08" stroke-width="8"/>
<path d="M36.5 29.3332V27.9998C36.5 27.6462 36.3595 27.3071 36.1095 27.057C35.8594 26.807 35.5203 26.6665 35.1667 26.6665H21.8333C21.4797 26.6665 21.1406 26.807 20.8905 27.057C20.6405 27.3071 20.5 27.6462 20.5 27.9998V35.9998C20.5 36.3535 20.6405 36.6926 20.8905 36.9426C21.1406 37.1927 21.4797 37.3332 21.8333 37.3332H35.1667C35.5203 37.3332 35.8594 37.1927 36.1095 36.9426C36.3595 36.6926 36.5 36.3535 36.5 35.9998V34.6665M36.5 29.3332H31.1667C30.4594 29.3332 29.7811 29.6141 29.281 30.1142C28.781 30.6143 28.5 31.2926 28.5 31.9998C28.5 32.7071 28.781 33.3854 29.281 33.8855C29.7811 34.3856 30.4594 34.6665 31.1667 34.6665H36.5M36.5 29.3332C37.2072 29.3332 37.8855 29.6141 38.3856 30.1142C38.8857 30.6143 39.1667 31.2926 39.1667 31.9998C39.1667 32.7071 38.8857 33.3854 38.3856 33.8855C37.8855 34.3856 37.2072 34.6665 36.5 34.6665M24.5 26.6665V22.6665C24.5 21.6056 24.9214 20.5882 25.6716 19.8381C26.4217 19.0879 27.4391 18.6665 28.5 18.6665C29.5609 18.6665 30.5783 19.0879 31.3284 19.8381C32.0786 20.5882 32.5 21.6056 32.5 22.6665V26.6665M35.8333 31.9998H37.1667M33.1667 31.9998H34.5M30.5 31.9998H31.8333" stroke="#4916AF"/>
</svg>
